<svg width="121" height="31" viewBox="0 0 121 31" fill="none" xmlns="http://www.w3.org/2000/svg">
<path d="M86.7548 27.5744H79.4095C79.4095 27.5744 75.6319 21.9911 73.697 21.0502C73.3827 23.2129 73.3827 25.4095 73.697 27.5722C71.5543 28.1881 67.6266 27.5722 67.6266 27.5722C68.7194 12.7726 67.6266 3.56473 67.6266 3.56473C67.6267 3.47652 67.6454 3.38931 67.6815 3.30882C67.7177 3.22832 67.7704 3.15635 67.8364 3.09761C67.9023 3.03887 67.9799 2.99468 68.0642 2.96795C68.1484 2.94121 68.2373 2.93253 68.3252 2.94246L72.812 3.45567C73.0556 3.4835 73.2804 3.59979 73.4436 3.78237C73.6068 3.96495 73.697 4.20107 73.697 4.44574V16.3201C75.0083 15.6594 77.6225 12.5587 78.3296 10.8929C78.6221 10.2147 79.1502 9.66471 79.8167 9.34412C80.4833 9.02352 81.2434 8.95388 81.9572 9.14802C82.4557 9.28299 82.914 9.53656 83.2928 9.88702C83.6716 10.2375 83.9596 10.6744 84.1321 11.1602C84.3024 11.6227 84.3562 12.1197 84.289 12.6078C84.2217 13.0959 84.0354 13.56 83.7464 13.9594C82.8079 15.2574 79.9516 17.6331 77.9332 19.0915C77.9867 19.1406 84.7706 24.9014 86.3777 27.0676L86.7548 27.5744ZM48.2671 10.7261C46.721 9.96092 45.0185 9.56275 43.2927 9.56275C41.5669 9.56275 39.8645 9.96092 38.3184 10.7261C36.8759 11.4676 35.6682 12.5943 34.83 13.9807C34.0045 15.4141 33.5701 17.0384 33.5701 18.6916C33.5701 20.3448 34.0045 21.9691 34.83 23.4024C35.669 24.789 36.8774 25.9157 38.3205 26.657C39.8667 27.4208 41.5686 27.8181 43.2938 27.8181C45.019 27.8181 46.7209 27.4208 48.2671 26.657C49.7023 25.9109 50.9039 24.7849 51.7404 23.4024C52.5647 21.9687 52.9984 20.3445 52.9984 18.6916C52.9984 17.0386 52.5647 15.4145 51.7404 13.9807C50.9038 12.5984 49.7022 11.4724 48.2671 10.7261ZM46.6236 18.6916C46.6236 20.5135 46.2958 21.9718 45.6487 23.0261C45.0251 24.0375 44.2559 24.5229 43.2916 24.5229C42.3274 24.5229 41.556 24.029 40.9239 23.0132C40.2704 21.959 39.9361 20.5028 39.9361 18.6852C39.9361 16.8676 40.2683 15.407 40.9239 14.3592C41.5796 13.3114 42.3167 12.8474 43.2916 12.8474C44.2666 12.8474 45.0165 13.3392 45.6487 14.3443C46.2958 15.4113 46.6236 16.8676 46.6236 18.6916ZM65.5782 10.0034C64.8454 9.50513 63.9197 9.42815 62.8955 9.78954C61.642 10.2343 60.4464 11.2458 59.7392 12.0904C59.7392 12.0904 59.9707 9.75532 59.4757 9.26136C58.9807 8.76739 53.8832 10.6149 53.8832 10.6149C54.4038 13.4697 54.8003 18.7899 53.8832 27.5744C53.8832 27.5744 56.6494 28.2822 60.2964 27.5744C59.5571 23.6954 59.6643 16.5211 60.2599 15.236C60.3949 14.9473 61.0913 15.221 61.7598 15.4284C62.5355 15.6679 63.5083 15.963 64.509 15.8347C65.1247 15.7688 65.7047 15.5133 66.1685 15.1037C66.6322 14.6941 66.9569 14.1507 67.0974 13.5488C67.4145 12.2123 66.8338 10.8587 65.5782 10.0034ZM33.8358 4.40725C32.9465 2.75215 27.7226 2.4485 27.0798 6.36172C26.6919 8.73318 31.3116 16.8996 27.2619 21.4458C26.6491 19.8634 22.625 9.02186 21.3415 5.81857C20.6387 4.06297 19.0017 3.1114 17.1246 3.29102C15.299 3.46423 13.9105 4.57404 13.662 6.36386C13.5679 7.25326 13.6665 8.15246 13.9512 9.00047C14.0927 9.44526 14.2812 9.99482 14.4848 10.5658C15.5353 13.4356 15.6686 16.5599 14.8662 19.5084C14.5555 20.6161 14.2019 21.4458 13.8441 21.4458C13.8441 21.4458 9.80505 10.9143 7.85946 6.00247C6.93594 3.67165 4.64536 2.67945 2.34835 3.5797C0.327759 4.3709 -0.54219 6.68889 0.349186 8.95343C2.46192 14.3207 3.90398 17.5582 5.92029 22.9619C6.85023 25.4595 7.15021 27.8802 11.3414 27.8802C14.7848 27.8802 17.2853 20.413 17.7696 18.8733C18.6417 21.0566 19.4966 23.2485 20.388 25.4232C21.0951 27.1531 22.4407 27.8844 24.6349 27.8844C30.1096 27.8887 35.4621 7.43732 33.8358 4.40725Z" fill="#2EA363"/>
<path d="M114.423 15.3364C114.461 15.7555 114.48 16.2025 114.48 16.6772C114.486 17.3126 114.425 17.9469 114.298 18.5696C114.196 19.0995 113.976 19.5998 113.656 20.0344C113.326 20.4557 112.892 20.7832 112.396 20.9839C111.754 21.2305 111.069 21.3461 110.381 21.3239H109.914V11.9642H110.362C110.883 11.9564 111.404 12.0074 111.913 12.116C112.305 12.2009 112.68 12.3497 113.023 12.5565C113.317 12.736 113.571 12.9732 113.769 13.2536C113.965 13.5401 114.116 13.8554 114.215 14.1881C114.321 14.5633 114.391 14.9478 114.423 15.3364ZM113.885 31C102.378 31 85.665 23.2719 85.665 18.9374C85.665 14.603 98.6264 0 113.96 0C123.255 0 123.471 31 113.885 31ZM105.01 21.3773H98.9735V17.4427H104.161V15.4091H98.9735V11.9663H104.935V9.88142H95.6544V23.4088H105.01V21.3773ZM117.377 19.6025C117.679 18.6712 117.824 17.6964 117.806 16.7178C117.806 14.4511 117.218 12.7404 116.043 11.5857C114.867 10.431 113.108 9.86075 110.765 9.87501H106.591V23.4024H110.746C111.803 23.4227 112.857 23.2784 113.87 22.9747C114.693 22.7221 115.447 22.283 116.073 21.6917C116.668 21.1089 117.115 20.3927 117.377 19.6025Z" fill="#2EA363"/>
</svg>
